<mxfile host="app.diagrams.net" modified="2022-11-29T12:39:03.077Z" agent="5.0 (Windows NT 10.0; Win64; x64) AppleWebKit/537.36 (KHTML, like Gecko) Chrome/107.0.0.0 Safari/537.36" etag="SlU5GaKUcgOQfC0I3Emb" version="20.6.0" type="github" pages="6">
  <diagram id="R2lEEEUBdFMjLlhIrx00" name="Page-1">
    <mxGraphModel dx="1422" dy="754" grid="1" gridSize="10" guides="1" tooltips="1" connect="1" arrows="1" fold="1" page="1" pageScale="1" pageWidth="850" pageHeight="1100" math="0" shadow="0" extFonts="Permanent Marker^https://fonts.googleapis.com/css?family=Permanent+Marker">
      <root>
        <mxCell id="0" />
        <mxCell id="1" parent="0" />
        <mxCell id="C-vyLk0tnHw3VtMMgP7b-1" value="" style="edgeStyle=entityRelationEdgeStyle;endArrow=ERzeroToMany;startArrow=ERone;endFill=1;startFill=0;" parent="1" source="C-vyLk0tnHw3VtMMgP7b-24" target="C-vyLk0tnHw3VtMMgP7b-6" edge="1">
          <mxGeometry width="100" height="100" relative="1" as="geometry">
            <mxPoint x="340" y="720" as="sourcePoint" />
            <mxPoint x="440" y="620" as="targetPoint" />
          </mxGeometry>
        </mxCell>
        <mxCell id="C-vyLk0tnHw3VtMMgP7b-12" value="" style="edgeStyle=entityRelationEdgeStyle;endArrow=ERzeroToMany;startArrow=ERone;endFill=1;startFill=0;" parent="1" source="C-vyLk0tnHw3VtMMgP7b-3" target="C-vyLk0tnHw3VtMMgP7b-17" edge="1">
          <mxGeometry width="100" height="100" relative="1" as="geometry">
            <mxPoint x="400" y="180" as="sourcePoint" />
            <mxPoint x="460" y="205" as="targetPoint" />
          </mxGeometry>
        </mxCell>
        <mxCell id="C-vyLk0tnHw3VtMMgP7b-2" value="Orders" style="shape=table;startSize=30;container=1;collapsible=1;childLayout=tableLayout;fixedRows=1;rowLines=0;fontStyle=1;align=center;resizeLast=1;" parent="1" vertex="1">
          <mxGeometry x="450" y="120" width="250" height="130" as="geometry" />
        </mxCell>
        <mxCell id="C-vyLk0tnHw3VtMMgP7b-3" value="" style="shape=partialRectangle;collapsible=0;dropTarget=0;pointerEvents=0;fillColor=none;points=[[0,0.5],[1,0.5]];portConstraint=eastwest;top=0;left=0;right=0;bottom=1;" parent="C-vyLk0tnHw3VtMMgP7b-2" vertex="1">
          <mxGeometry y="30" width="250" height="30" as="geometry" />
        </mxCell>
        <mxCell id="C-vyLk0tnHw3VtMMgP7b-4" value="PK" style="shape=partialRectangle;overflow=hidden;connectable=0;fillColor=none;top=0;left=0;bottom=0;right=0;fontStyle=1;" parent="C-vyLk0tnHw3VtMMgP7b-3" vertex="1">
          <mxGeometry width="30" height="30" as="geometry" />
        </mxCell>
        <mxCell id="C-vyLk0tnHw3VtMMgP7b-5" value="order_id int NOT NULL " style="shape=partialRectangle;overflow=hidden;connectable=0;fillColor=none;top=0;left=0;bottom=0;right=0;align=left;spacingLeft=6;fontStyle=5;" parent="C-vyLk0tnHw3VtMMgP7b-3" vertex="1">
          <mxGeometry x="30" width="220" height="30" as="geometry" />
        </mxCell>
        <mxCell id="C-vyLk0tnHw3VtMMgP7b-6" value="" style="shape=partialRectangle;collapsible=0;dropTarget=0;pointerEvents=0;fillColor=none;points=[[0,0.5],[1,0.5]];portConstraint=eastwest;top=0;left=0;right=0;bottom=0;" parent="C-vyLk0tnHw3VtMMgP7b-2" vertex="1">
          <mxGeometry y="60" width="250" height="30" as="geometry" />
        </mxCell>
        <mxCell id="C-vyLk0tnHw3VtMMgP7b-7" value="FK1" style="shape=partialRectangle;overflow=hidden;connectable=0;fillColor=none;top=0;left=0;bottom=0;right=0;" parent="C-vyLk0tnHw3VtMMgP7b-6" vertex="1">
          <mxGeometry width="30" height="30" as="geometry" />
        </mxCell>
        <mxCell id="C-vyLk0tnHw3VtMMgP7b-8" value="customer_id int NOT NULL" style="shape=partialRectangle;overflow=hidden;connectable=0;fillColor=none;top=0;left=0;bottom=0;right=0;align=left;spacingLeft=6;" parent="C-vyLk0tnHw3VtMMgP7b-6" vertex="1">
          <mxGeometry x="30" width="220" height="30" as="geometry" />
        </mxCell>
        <mxCell id="C-vyLk0tnHw3VtMMgP7b-9" value="" style="shape=partialRectangle;collapsible=0;dropTarget=0;pointerEvents=0;fillColor=none;points=[[0,0.5],[1,0.5]];portConstraint=eastwest;top=0;left=0;right=0;bottom=0;" parent="C-vyLk0tnHw3VtMMgP7b-2" vertex="1">
          <mxGeometry y="90" width="250" height="30" as="geometry" />
        </mxCell>
        <mxCell id="C-vyLk0tnHw3VtMMgP7b-10" value="" style="shape=partialRectangle;overflow=hidden;connectable=0;fillColor=none;top=0;left=0;bottom=0;right=0;" parent="C-vyLk0tnHw3VtMMgP7b-9" vertex="1">
          <mxGeometry width="30" height="30" as="geometry" />
        </mxCell>
        <mxCell id="C-vyLk0tnHw3VtMMgP7b-11" value="order_date date NOT NULL" style="shape=partialRectangle;overflow=hidden;connectable=0;fillColor=none;top=0;left=0;bottom=0;right=0;align=left;spacingLeft=6;" parent="C-vyLk0tnHw3VtMMgP7b-9" vertex="1">
          <mxGeometry x="30" width="220" height="30" as="geometry" />
        </mxCell>
        <mxCell id="C-vyLk0tnHw3VtMMgP7b-13" value="Shipments" style="shape=table;startSize=30;container=1;collapsible=1;childLayout=tableLayout;fixedRows=1;rowLines=0;fontStyle=1;align=center;resizeLast=1;" parent="1" vertex="1">
          <mxGeometry x="450" y="280" width="250" height="130" as="geometry" />
        </mxCell>
        <mxCell id="C-vyLk0tnHw3VtMMgP7b-14" value="" style="shape=partialRectangle;collapsible=0;dropTarget=0;pointerEvents=0;fillColor=none;points=[[0,0.5],[1,0.5]];portConstraint=eastwest;top=0;left=0;right=0;bottom=1;" parent="C-vyLk0tnHw3VtMMgP7b-13" vertex="1">
          <mxGeometry y="30" width="250" height="30" as="geometry" />
        </mxCell>
        <mxCell id="C-vyLk0tnHw3VtMMgP7b-15" value="PK" style="shape=partialRectangle;overflow=hidden;connectable=0;fillColor=none;top=0;left=0;bottom=0;right=0;fontStyle=1;" parent="C-vyLk0tnHw3VtMMgP7b-14" vertex="1">
          <mxGeometry width="30" height="30" as="geometry" />
        </mxCell>
        <mxCell id="C-vyLk0tnHw3VtMMgP7b-16" value="shipment_id int NOT NULL " style="shape=partialRectangle;overflow=hidden;connectable=0;fillColor=none;top=0;left=0;bottom=0;right=0;align=left;spacingLeft=6;fontStyle=5;" parent="C-vyLk0tnHw3VtMMgP7b-14" vertex="1">
          <mxGeometry x="30" width="220" height="30" as="geometry" />
        </mxCell>
        <mxCell id="C-vyLk0tnHw3VtMMgP7b-17" value="" style="shape=partialRectangle;collapsible=0;dropTarget=0;pointerEvents=0;fillColor=none;points=[[0,0.5],[1,0.5]];portConstraint=eastwest;top=0;left=0;right=0;bottom=0;" parent="C-vyLk0tnHw3VtMMgP7b-13" vertex="1">
          <mxGeometry y="60" width="250" height="30" as="geometry" />
        </mxCell>
        <mxCell id="C-vyLk0tnHw3VtMMgP7b-18" value="FK1" style="shape=partialRectangle;overflow=hidden;connectable=0;fillColor=none;top=0;left=0;bottom=0;right=0;" parent="C-vyLk0tnHw3VtMMgP7b-17" vertex="1">
          <mxGeometry width="30" height="30" as="geometry" />
        </mxCell>
        <mxCell id="C-vyLk0tnHw3VtMMgP7b-19" value="order_id int NOT NULL" style="shape=partialRectangle;overflow=hidden;connectable=0;fillColor=none;top=0;left=0;bottom=0;right=0;align=left;spacingLeft=6;" parent="C-vyLk0tnHw3VtMMgP7b-17" vertex="1">
          <mxGeometry x="30" width="220" height="30" as="geometry" />
        </mxCell>
        <mxCell id="C-vyLk0tnHw3VtMMgP7b-20" value="" style="shape=partialRectangle;collapsible=0;dropTarget=0;pointerEvents=0;fillColor=none;points=[[0,0.5],[1,0.5]];portConstraint=eastwest;top=0;left=0;right=0;bottom=0;" parent="C-vyLk0tnHw3VtMMgP7b-13" vertex="1">
          <mxGeometry y="90" width="250" height="30" as="geometry" />
        </mxCell>
        <mxCell id="C-vyLk0tnHw3VtMMgP7b-21" value="" style="shape=partialRectangle;overflow=hidden;connectable=0;fillColor=none;top=0;left=0;bottom=0;right=0;" parent="C-vyLk0tnHw3VtMMgP7b-20" vertex="1">
          <mxGeometry width="30" height="30" as="geometry" />
        </mxCell>
        <mxCell id="C-vyLk0tnHw3VtMMgP7b-22" value="shipment_date date NOT NULL" style="shape=partialRectangle;overflow=hidden;connectable=0;fillColor=none;top=0;left=0;bottom=0;right=0;align=left;spacingLeft=6;" parent="C-vyLk0tnHw3VtMMgP7b-20" vertex="1">
          <mxGeometry x="30" width="220" height="30" as="geometry" />
        </mxCell>
        <mxCell id="C-vyLk0tnHw3VtMMgP7b-23" value="Customers" style="shape=table;startSize=30;container=1;collapsible=1;childLayout=tableLayout;fixedRows=1;rowLines=0;fontStyle=1;align=center;resizeLast=1;" parent="1" vertex="1">
          <mxGeometry x="120" y="120" width="250" height="100" as="geometry" />
        </mxCell>
        <mxCell id="C-vyLk0tnHw3VtMMgP7b-24" value="" style="shape=partialRectangle;collapsible=0;dropTarget=0;pointerEvents=0;fillColor=none;points=[[0,0.5],[1,0.5]];portConstraint=eastwest;top=0;left=0;right=0;bottom=1;" parent="C-vyLk0tnHw3VtMMgP7b-23" vertex="1">
          <mxGeometry y="30" width="250" height="30" as="geometry" />
        </mxCell>
        <mxCell id="C-vyLk0tnHw3VtMMgP7b-25" value="PK" style="shape=partialRectangle;overflow=hidden;connectable=0;fillColor=none;top=0;left=0;bottom=0;right=0;fontStyle=1;" parent="C-vyLk0tnHw3VtMMgP7b-24" vertex="1">
          <mxGeometry width="30" height="30" as="geometry" />
        </mxCell>
        <mxCell id="C-vyLk0tnHw3VtMMgP7b-26" value="customer_id int NOT NULL " style="shape=partialRectangle;overflow=hidden;connectable=0;fillColor=none;top=0;left=0;bottom=0;right=0;align=left;spacingLeft=6;fontStyle=5;" parent="C-vyLk0tnHw3VtMMgP7b-24" vertex="1">
          <mxGeometry x="30" width="220" height="30" as="geometry" />
        </mxCell>
        <mxCell id="C-vyLk0tnHw3VtMMgP7b-27" value="" style="shape=partialRectangle;collapsible=0;dropTarget=0;pointerEvents=0;fillColor=none;points=[[0,0.5],[1,0.5]];portConstraint=eastwest;top=0;left=0;right=0;bottom=0;" parent="C-vyLk0tnHw3VtMMgP7b-23" vertex="1">
          <mxGeometry y="60" width="250" height="30" as="geometry" />
        </mxCell>
        <mxCell id="C-vyLk0tnHw3VtMMgP7b-28" value="" style="shape=partialRectangle;overflow=hidden;connectable=0;fillColor=none;top=0;left=0;bottom=0;right=0;" parent="C-vyLk0tnHw3VtMMgP7b-27" vertex="1">
          <mxGeometry width="30" height="30" as="geometry" />
        </mxCell>
        <mxCell id="C-vyLk0tnHw3VtMMgP7b-29" value="customer_name char(50) NOT NULL" style="shape=partialRectangle;overflow=hidden;connectable=0;fillColor=none;top=0;left=0;bottom=0;right=0;align=left;spacingLeft=6;" parent="C-vyLk0tnHw3VtMMgP7b-27" vertex="1">
          <mxGeometry x="30" width="220" height="30" as="geometry" />
        </mxCell>
      </root>
    </mxGraphModel>
  </diagram>
  <diagram id="Bs6Ez3fOGdzFSmNBiypB" name="Sales">
    <mxGraphModel dx="1896" dy="1005" grid="1" gridSize="10" guides="1" tooltips="1" connect="1" arrows="1" fold="1" page="1" pageScale="1" pageWidth="2339" pageHeight="3300" math="0" shadow="0">
      <root>
        <mxCell id="0" />
        <mxCell id="1" parent="0" />
        <mxCell id="MQmLpud6goRWGDzxcpg3-5" value="" style="edgeStyle=orthogonalEdgeStyle;rounded=0;orthogonalLoop=1;jettySize=auto;html=1;endArrow=none;endFill=0;startArrow=ERone;startFill=0;" edge="1" parent="1" source="MQmLpud6goRWGDzxcpg3-1" target="MQmLpud6goRWGDzxcpg3-2">
          <mxGeometry relative="1" as="geometry" />
        </mxCell>
        <mxCell id="MQmLpud6goRWGDzxcpg3-1" value="Salesperson" style="whiteSpace=wrap;html=1;align=center;" vertex="1" parent="1">
          <mxGeometry x="670" y="370" width="100" height="40" as="geometry" />
        </mxCell>
        <mxCell id="MQmLpud6goRWGDzxcpg3-4" value="" style="edgeStyle=orthogonalEdgeStyle;rounded=0;orthogonalLoop=1;jettySize=auto;html=1;endArrow=ERoneToMany;endFill=0;" edge="1" parent="1" source="MQmLpud6goRWGDzxcpg3-2" target="MQmLpud6goRWGDzxcpg3-3">
          <mxGeometry relative="1" as="geometry" />
        </mxCell>
        <mxCell id="MQmLpud6goRWGDzxcpg3-2" value="manages" style="rhombus;whiteSpace=wrap;html=1;" vertex="1" parent="1">
          <mxGeometry x="840" y="350" width="80" height="80" as="geometry" />
        </mxCell>
        <mxCell id="MQmLpud6goRWGDzxcpg3-7" value="" style="edgeStyle=orthogonalEdgeStyle;rounded=0;orthogonalLoop=1;jettySize=auto;html=1;startArrow=ERone;startFill=0;endArrow=none;endFill=0;" edge="1" parent="1" source="MQmLpud6goRWGDzxcpg3-3" target="MQmLpud6goRWGDzxcpg3-6">
          <mxGeometry relative="1" as="geometry" />
        </mxCell>
        <mxCell id="MQmLpud6goRWGDzxcpg3-3" value="&lt;span lang=&quot;EN&quot;&gt;Salespeople&lt;/span&gt;" style="whiteSpace=wrap;html=1;" vertex="1" parent="1">
          <mxGeometry x="980" y="360" width="120" height="60" as="geometry" />
        </mxCell>
        <mxCell id="MQmLpud6goRWGDzxcpg3-9" value="" style="edgeStyle=orthogonalEdgeStyle;rounded=0;orthogonalLoop=1;jettySize=auto;html=1;startArrow=none;startFill=0;endArrow=ERoneToMany;endFill=0;" edge="1" parent="1" source="MQmLpud6goRWGDzxcpg3-6" target="MQmLpud6goRWGDzxcpg3-8">
          <mxGeometry relative="1" as="geometry" />
        </mxCell>
        <mxCell id="MQmLpud6goRWGDzxcpg3-6" value="managed" style="rhombus;whiteSpace=wrap;html=1;" vertex="1" parent="1">
          <mxGeometry x="1000" y="490" width="80" height="80" as="geometry" />
        </mxCell>
        <mxCell id="MQmLpud6goRWGDzxcpg3-11" value="" style="edgeStyle=orthogonalEdgeStyle;rounded=0;orthogonalLoop=1;jettySize=auto;html=1;startArrow=ERone;startFill=0;endArrow=none;endFill=0;" edge="1" parent="1" source="MQmLpud6goRWGDzxcpg3-8" target="MQmLpud6goRWGDzxcpg3-10">
          <mxGeometry relative="1" as="geometry" />
        </mxCell>
        <mxCell id="MQmLpud6goRWGDzxcpg3-8" value="Customers" style="whiteSpace=wrap;html=1;" vertex="1" parent="1">
          <mxGeometry x="980" y="660" width="120" height="60" as="geometry" />
        </mxCell>
        <mxCell id="MQmLpud6goRWGDzxcpg3-13" value="" style="edgeStyle=orthogonalEdgeStyle;rounded=0;orthogonalLoop=1;jettySize=auto;html=1;startArrow=none;startFill=0;endArrow=ERoneToMany;endFill=0;" edge="1" parent="1" source="MQmLpud6goRWGDzxcpg3-10" target="MQmLpud6goRWGDzxcpg3-12">
          <mxGeometry relative="1" as="geometry" />
        </mxCell>
        <mxCell id="MQmLpud6goRWGDzxcpg3-10" value="placed" style="rhombus;whiteSpace=wrap;html=1;" vertex="1" parent="1">
          <mxGeometry x="1200" y="650" width="80" height="80" as="geometry" />
        </mxCell>
        <mxCell id="MQmLpud6goRWGDzxcpg3-15" value="" style="edgeStyle=orthogonalEdgeStyle;rounded=0;orthogonalLoop=1;jettySize=auto;html=1;startArrow=ERoneToMany;startFill=0;endArrow=none;endFill=0;" edge="1" parent="1" source="MQmLpud6goRWGDzxcpg3-12" target="MQmLpud6goRWGDzxcpg3-14">
          <mxGeometry relative="1" as="geometry" />
        </mxCell>
        <mxCell id="MQmLpud6goRWGDzxcpg3-12" value="Orders" style="whiteSpace=wrap;html=1;" vertex="1" parent="1">
          <mxGeometry x="1340" y="660" width="120" height="60" as="geometry" />
        </mxCell>
        <mxCell id="MQmLpud6goRWGDzxcpg3-17" value="" style="edgeStyle=orthogonalEdgeStyle;rounded=0;orthogonalLoop=1;jettySize=auto;html=1;startArrow=none;startFill=0;endArrow=ERoneToMany;endFill=0;" edge="1" parent="1" source="MQmLpud6goRWGDzxcpg3-14" target="MQmLpud6goRWGDzxcpg3-16">
          <mxGeometry relative="1" as="geometry" />
        </mxCell>
        <mxCell id="MQmLpud6goRWGDzxcpg3-14" value="listed" style="rhombus;whiteSpace=wrap;html=1;" vertex="1" parent="1">
          <mxGeometry x="1360" y="790" width="80" height="80" as="geometry" />
        </mxCell>
        <mxCell id="MQmLpud6goRWGDzxcpg3-21" value="" style="edgeStyle=orthogonalEdgeStyle;rounded=0;orthogonalLoop=1;jettySize=auto;html=1;startArrow=ERoneToMany;startFill=0;endArrow=none;endFill=0;" edge="1" parent="1" source="MQmLpud6goRWGDzxcpg3-16" target="MQmLpud6goRWGDzxcpg3-20">
          <mxGeometry relative="1" as="geometry" />
        </mxCell>
        <mxCell id="MQmLpud6goRWGDzxcpg3-16" value="Inventory Item" style="whiteSpace=wrap;html=1;" vertex="1" parent="1">
          <mxGeometry x="1340" y="960" width="120" height="60" as="geometry" />
        </mxCell>
        <mxCell id="MQmLpud6goRWGDzxcpg3-23" value="" style="edgeStyle=orthogonalEdgeStyle;rounded=0;orthogonalLoop=1;jettySize=auto;html=1;startArrow=none;startFill=0;endArrow=ERoneToMany;endFill=0;" edge="1" parent="1" source="MQmLpud6goRWGDzxcpg3-20" target="MQmLpud6goRWGDzxcpg3-22">
          <mxGeometry relative="1" as="geometry" />
        </mxCell>
        <mxCell id="MQmLpud6goRWGDzxcpg3-20" value="assembled" style="rhombus;whiteSpace=wrap;html=1;" vertex="1" parent="1">
          <mxGeometry x="1560" y="950" width="80" height="80" as="geometry" />
        </mxCell>
        <mxCell id="MQmLpud6goRWGDzxcpg3-29" value="" style="edgeStyle=orthogonalEdgeStyle;rounded=0;orthogonalLoop=1;jettySize=auto;html=1;startArrow=ERoneToMany;startFill=0;endArrow=none;endFill=0;" edge="1" parent="1" source="MQmLpud6goRWGDzxcpg3-22" target="MQmLpud6goRWGDzxcpg3-28">
          <mxGeometry relative="1" as="geometry" />
        </mxCell>
        <mxCell id="MQmLpud6goRWGDzxcpg3-22" value="Parts" style="whiteSpace=wrap;html=1;" vertex="1" parent="1">
          <mxGeometry x="1700" y="960" width="120" height="60" as="geometry" />
        </mxCell>
        <mxCell id="MQmLpud6goRWGDzxcpg3-25" value="" style="edgeStyle=orthogonalEdgeStyle;rounded=0;orthogonalLoop=1;jettySize=auto;html=1;startArrow=none;startFill=0;endArrow=none;endFill=0;" edge="1" parent="1" source="MQmLpud6goRWGDzxcpg3-24" target="MQmLpud6goRWGDzxcpg3-16">
          <mxGeometry relative="1" as="geometry" />
        </mxCell>
        <mxCell id="MQmLpud6goRWGDzxcpg3-27" value="" style="edgeStyle=orthogonalEdgeStyle;rounded=0;orthogonalLoop=1;jettySize=auto;html=1;startArrow=none;startFill=0;endArrow=ERoneToMany;endFill=0;" edge="1" parent="1" source="MQmLpud6goRWGDzxcpg3-24" target="MQmLpud6goRWGDzxcpg3-26">
          <mxGeometry relative="1" as="geometry" />
        </mxCell>
        <mxCell id="MQmLpud6goRWGDzxcpg3-24" value="assemble" style="rhombus;whiteSpace=wrap;html=1;" vertex="1" parent="1">
          <mxGeometry x="1200" y="950" width="80" height="80" as="geometry" />
        </mxCell>
        <mxCell id="MQmLpud6goRWGDzxcpg3-26" value="Employees" style="whiteSpace=wrap;html=1;" vertex="1" parent="1">
          <mxGeometry x="1020" y="960" width="120" height="60" as="geometry" />
        </mxCell>
        <mxCell id="MQmLpud6goRWGDzxcpg3-31" value="" style="edgeStyle=orthogonalEdgeStyle;rounded=0;orthogonalLoop=1;jettySize=auto;html=1;startArrow=none;startFill=0;endArrow=ERoneToMany;endFill=0;" edge="1" parent="1" source="MQmLpud6goRWGDzxcpg3-28" target="MQmLpud6goRWGDzxcpg3-30">
          <mxGeometry relative="1" as="geometry" />
        </mxCell>
        <mxCell id="MQmLpud6goRWGDzxcpg3-28" value="supplies" style="rhombus;whiteSpace=wrap;html=1;" vertex="1" parent="1">
          <mxGeometry x="1720" y="810" width="80" height="80" as="geometry" />
        </mxCell>
        <mxCell id="MQmLpud6goRWGDzxcpg3-30" value="Supplier" style="whiteSpace=wrap;html=1;" vertex="1" parent="1">
          <mxGeometry x="1700" y="660" width="120" height="60" as="geometry" />
        </mxCell>
      </root>
    </mxGraphModel>
  </diagram>
  <diagram id="SewntGeWQw8zVE40T_jz" name="Manufacturer">
    <mxGraphModel dx="1673" dy="887" grid="1" gridSize="10" guides="1" tooltips="1" connect="1" arrows="1" fold="1" page="1" pageScale="1" pageWidth="2339" pageHeight="3300" math="0" shadow="0">
      <root>
        <mxCell id="0" />
        <mxCell id="1" parent="0" />
        <mxCell id="VOlaEclCACmOoVHJkJEE-4" value="" style="edgeStyle=orthogonalEdgeStyle;rounded=0;orthogonalLoop=1;jettySize=auto;html=1;startArrow=ERone;startFill=0;endArrow=none;endFill=0;" edge="1" parent="1" source="VOlaEclCACmOoVHJkJEE-1" target="VOlaEclCACmOoVHJkJEE-3">
          <mxGeometry relative="1" as="geometry" />
        </mxCell>
        <mxCell id="VOlaEclCACmOoVHJkJEE-1" value="Product" style="swimlane;childLayout=stackLayout;horizontal=1;startSize=30;horizontalStack=0;rounded=1;fontSize=14;fontStyle=0;strokeWidth=2;resizeParent=0;resizeLast=1;shadow=0;dashed=0;align=center;" vertex="1" parent="1">
          <mxGeometry x="640" y="330" width="160" height="120" as="geometry">
            <mxRectangle x="640" y="330" width="80" height="30" as="alternateBounds" />
          </mxGeometry>
        </mxCell>
        <mxCell id="VOlaEclCACmOoVHJkJEE-2" value="product name&#xa;product ID &#xa;quantity " style="align=left;strokeColor=none;fillColor=none;spacingLeft=4;fontSize=12;verticalAlign=top;resizable=0;rotatable=0;part=1;" vertex="1" parent="VOlaEclCACmOoVHJkJEE-1">
          <mxGeometry y="30" width="160" height="90" as="geometry" />
        </mxCell>
        <mxCell id="VOlaEclCACmOoVHJkJEE-3" value="made" style="rhombus;whiteSpace=wrap;html=1;fontSize=14;fontStyle=0;startSize=30;rounded=1;strokeWidth=2;shadow=0;dashed=0;" vertex="1" parent="1">
          <mxGeometry x="680" y="550" width="80" height="80" as="geometry" />
        </mxCell>
        <mxCell id="VOlaEclCACmOoVHJkJEE-10" value="" style="edgeStyle=orthogonalEdgeStyle;rounded=0;orthogonalLoop=1;jettySize=auto;html=1;startArrow=none;startFill=0;endArrow=none;endFill=0;exitX=1.005;exitY=0.319;exitDx=0;exitDy=0;exitPerimeter=0;" edge="1" parent="1" source="VOlaEclCACmOoVHJkJEE-14" target="VOlaEclCACmOoVHJkJEE-9">
          <mxGeometry relative="1" as="geometry">
            <mxPoint x="910" y="750" as="sourcePoint" />
            <Array as="points">
              <mxPoint x="930" y="779" />
              <mxPoint x="930" y="750" />
            </Array>
          </mxGeometry>
        </mxCell>
        <mxCell id="VOlaEclCACmOoVHJkJEE-12" value="" style="edgeStyle=orthogonalEdgeStyle;rounded=0;orthogonalLoop=1;jettySize=auto;html=1;startArrow=none;startFill=0;endArrow=ERoneToMany;endFill=0;" edge="1" parent="1" source="VOlaEclCACmOoVHJkJEE-9" target="VOlaEclCACmOoVHJkJEE-11">
          <mxGeometry relative="1" as="geometry" />
        </mxCell>
        <mxCell id="VOlaEclCACmOoVHJkJEE-9" value="suplies" style="rhombus;whiteSpace=wrap;html=1;fontSize=14;fontStyle=0;startSize=30;rounded=1;strokeWidth=2;shadow=0;dashed=0;" vertex="1" parent="1">
          <mxGeometry x="920" y="740" width="80" height="80" as="geometry" />
        </mxCell>
        <mxCell id="VOlaEclCACmOoVHJkJEE-11" value="Suplier" style="whiteSpace=wrap;html=1;fontSize=14;fontStyle=0;startSize=30;rounded=1;strokeWidth=2;shadow=0;dashed=0;" vertex="1" parent="1">
          <mxGeometry x="1090" y="750" width="120" height="60" as="geometry" />
        </mxCell>
        <mxCell id="VOlaEclCACmOoVHJkJEE-16" value="" style="edgeStyle=orthogonalEdgeStyle;rounded=0;orthogonalLoop=1;jettySize=auto;html=1;startArrow=ERmany;startFill=0;endArrow=none;endFill=0;" edge="1" parent="1" source="VOlaEclCACmOoVHJkJEE-13" target="VOlaEclCACmOoVHJkJEE-3">
          <mxGeometry relative="1" as="geometry" />
        </mxCell>
        <mxCell id="VOlaEclCACmOoVHJkJEE-13" value="Components" style="swimlane;childLayout=stackLayout;horizontal=1;startSize=30;horizontalStack=0;rounded=1;fontSize=14;fontStyle=0;strokeWidth=2;resizeParent=0;resizeLast=1;shadow=0;dashed=0;align=center;" vertex="1" parent="1">
          <mxGeometry x="640" y="720" width="160" height="120" as="geometry" />
        </mxCell>
        <mxCell id="VOlaEclCACmOoVHJkJEE-14" value="component ID&#xa;components name&#xa;description&#xa;suppliers&#xa;product in " style="align=left;strokeColor=none;fillColor=none;spacingLeft=4;fontSize=12;verticalAlign=top;resizable=0;rotatable=0;part=1;" vertex="1" parent="VOlaEclCACmOoVHJkJEE-13">
          <mxGeometry y="30" width="160" height="90" as="geometry" />
        </mxCell>
      </root>
    </mxGraphModel>
  </diagram>
  <diagram id="BHzJVX63ZceFdlxD4on4" name="Car Dealership">
    <mxGraphModel dx="1422" dy="754" grid="1" gridSize="10" guides="1" tooltips="1" connect="1" arrows="1" fold="1" page="1" pageScale="1" pageWidth="2339" pageHeight="3300" math="0" shadow="0">
      <root>
        <mxCell id="0" />
        <mxCell id="1" parent="0" />
        <mxCell id="_IgYxkbMtm2fN547MtY3-3" value="" style="edgeStyle=orthogonalEdgeStyle;rounded=0;orthogonalLoop=1;jettySize=auto;html=1;startArrow=ERone;startFill=0;endArrow=none;endFill=0;" edge="1" parent="1" source="_IgYxkbMtm2fN547MtY3-1" target="_IgYxkbMtm2fN547MtY3-2">
          <mxGeometry relative="1" as="geometry" />
        </mxCell>
        <mxCell id="_IgYxkbMtm2fN547MtY3-13" value="" style="edgeStyle=orthogonalEdgeStyle;rounded=0;orthogonalLoop=1;jettySize=auto;html=1;startArrow=ERone;startFill=0;endArrow=none;endFill=0;" edge="1" parent="1" source="_IgYxkbMtm2fN547MtY3-1" target="_IgYxkbMtm2fN547MtY3-12">
          <mxGeometry relative="1" as="geometry" />
        </mxCell>
        <mxCell id="_IgYxkbMtm2fN547MtY3-1" value="Salesperson" style="whiteSpace=wrap;html=1;align=center;" vertex="1" parent="1">
          <mxGeometry x="670" y="370" width="100" height="40" as="geometry" />
        </mxCell>
        <mxCell id="_IgYxkbMtm2fN547MtY3-5" value="" style="edgeStyle=orthogonalEdgeStyle;rounded=0;orthogonalLoop=1;jettySize=auto;html=1;startArrow=none;startFill=0;endArrow=ERmany;endFill=0;" edge="1" parent="1" source="_IgYxkbMtm2fN547MtY3-2" target="_IgYxkbMtm2fN547MtY3-4">
          <mxGeometry relative="1" as="geometry" />
        </mxCell>
        <mxCell id="_IgYxkbMtm2fN547MtY3-2" value="sales" style="rhombus;whiteSpace=wrap;html=1;" vertex="1" parent="1">
          <mxGeometry x="860" y="350" width="80" height="80" as="geometry" />
        </mxCell>
        <mxCell id="_IgYxkbMtm2fN547MtY3-7" value="" style="edgeStyle=orthogonalEdgeStyle;rounded=0;orthogonalLoop=1;jettySize=auto;html=1;startArrow=ERoneToMany;startFill=0;endArrow=none;endFill=0;" edge="1" parent="1" source="_IgYxkbMtm2fN547MtY3-4" target="_IgYxkbMtm2fN547MtY3-6">
          <mxGeometry relative="1" as="geometry" />
        </mxCell>
        <mxCell id="_IgYxkbMtm2fN547MtY3-4" value="Car" style="whiteSpace=wrap;html=1;" vertex="1" parent="1">
          <mxGeometry x="1000" y="360" width="120" height="60" as="geometry" />
        </mxCell>
        <mxCell id="_IgYxkbMtm2fN547MtY3-11" value="" style="edgeStyle=orthogonalEdgeStyle;rounded=0;orthogonalLoop=1;jettySize=auto;html=1;startArrow=none;startFill=0;endArrow=ERone;endFill=0;" edge="1" parent="1" source="_IgYxkbMtm2fN547MtY3-6" target="_IgYxkbMtm2fN547MtY3-10">
          <mxGeometry relative="1" as="geometry" />
        </mxCell>
        <mxCell id="_IgYxkbMtm2fN547MtY3-6" value="buy/&lt;br&gt;&lt;span lang=&quot;EN&quot;&gt;serviced&lt;/span&gt;" style="rhombus;whiteSpace=wrap;html=1;" vertex="1" parent="1">
          <mxGeometry x="1020" y="490" width="80" height="80" as="geometry" />
        </mxCell>
        <mxCell id="_IgYxkbMtm2fN547MtY3-17" value="" style="edgeStyle=orthogonalEdgeStyle;rounded=0;orthogonalLoop=1;jettySize=auto;html=1;startArrow=ERone;startFill=0;endArrow=none;endFill=0;" edge="1" parent="1" source="_IgYxkbMtm2fN547MtY3-10" target="_IgYxkbMtm2fN547MtY3-16">
          <mxGeometry relative="1" as="geometry" />
        </mxCell>
        <mxCell id="_IgYxkbMtm2fN547MtY3-22" value="" style="edgeStyle=orthogonalEdgeStyle;rounded=0;orthogonalLoop=1;jettySize=auto;html=1;startArrow=ERone;startFill=0;endArrow=none;endFill=0;" edge="1" parent="1" source="_IgYxkbMtm2fN547MtY3-10" target="_IgYxkbMtm2fN547MtY3-21">
          <mxGeometry relative="1" as="geometry" />
        </mxCell>
        <mxCell id="_IgYxkbMtm2fN547MtY3-10" value="Customer" style="whiteSpace=wrap;html=1;" vertex="1" parent="1">
          <mxGeometry x="1000" y="660" width="120" height="60" as="geometry" />
        </mxCell>
        <mxCell id="_IgYxkbMtm2fN547MtY3-15" value="" style="edgeStyle=orthogonalEdgeStyle;rounded=0;orthogonalLoop=1;jettySize=auto;html=1;startArrow=none;startFill=0;endArrow=ERone;endFill=0;" edge="1" parent="1" source="_IgYxkbMtm2fN547MtY3-12">
          <mxGeometry relative="1" as="geometry">
            <mxPoint x="720" y="660" as="targetPoint" />
          </mxGeometry>
        </mxCell>
        <mxCell id="_IgYxkbMtm2fN547MtY3-19" value="" style="edgeStyle=orthogonalEdgeStyle;rounded=0;orthogonalLoop=1;jettySize=auto;html=1;startArrow=none;startFill=0;endArrow=none;endFill=0;" edge="1" parent="1" source="_IgYxkbMtm2fN547MtY3-12" target="_IgYxkbMtm2fN547MtY3-18">
          <mxGeometry relative="1" as="geometry" />
        </mxCell>
        <mxCell id="_IgYxkbMtm2fN547MtY3-12" value="write" style="rhombus;whiteSpace=wrap;html=1;" vertex="1" parent="1">
          <mxGeometry x="680" y="490" width="80" height="80" as="geometry" />
        </mxCell>
        <mxCell id="_IgYxkbMtm2fN547MtY3-16" value="gets" style="rhombus;whiteSpace=wrap;html=1;" vertex="1" parent="1">
          <mxGeometry x="860" y="650" width="80" height="80" as="geometry" />
        </mxCell>
        <mxCell id="_IgYxkbMtm2fN547MtY3-20" value="" style="edgeStyle=orthogonalEdgeStyle;rounded=0;orthogonalLoop=1;jettySize=auto;html=1;startArrow=ERone;startFill=0;endArrow=none;endFill=0;" edge="1" parent="1" source="_IgYxkbMtm2fN547MtY3-18" target="_IgYxkbMtm2fN547MtY3-16">
          <mxGeometry relative="1" as="geometry" />
        </mxCell>
        <mxCell id="_IgYxkbMtm2fN547MtY3-18" value="Invoice" style="whiteSpace=wrap;html=1;" vertex="1" parent="1">
          <mxGeometry x="660" y="660" width="120" height="60" as="geometry" />
        </mxCell>
        <mxCell id="_IgYxkbMtm2fN547MtY3-24" value="" style="edgeStyle=orthogonalEdgeStyle;rounded=0;orthogonalLoop=1;jettySize=auto;html=1;startArrow=none;startFill=0;endArrow=ERoneToMany;endFill=0;" edge="1" parent="1" source="_IgYxkbMtm2fN547MtY3-21" target="_IgYxkbMtm2fN547MtY3-23">
          <mxGeometry relative="1" as="geometry" />
        </mxCell>
        <mxCell id="_IgYxkbMtm2fN547MtY3-21" value="get" style="rhombus;whiteSpace=wrap;html=1;" vertex="1" parent="1">
          <mxGeometry x="1220" y="650" width="80" height="80" as="geometry" />
        </mxCell>
        <mxCell id="_IgYxkbMtm2fN547MtY3-23" value="Service t&lt;span style=&quot;font-size:11.0pt;line-height:&lt;br/&gt;115%;font-family:&amp;quot;Arial&amp;quot;,sans-serif;mso-fareast-font-family:Arial;mso-ansi-language:&lt;br/&gt;EN;mso-fareast-language:PT;mso-bidi-language:AR-SA&quot; lang=&quot;EN&quot;&gt;icket&amp;nbsp;&lt;/span&gt;" style="whiteSpace=wrap;html=1;" vertex="1" parent="1">
          <mxGeometry x="1360" y="660" width="120" height="60" as="geometry" />
        </mxCell>
      </root>
    </mxGraphModel>
  </diagram>
  <diagram id="oWtkLIrYetNosMWvL5Eo" name="Sports">
    <mxGraphModel dx="1422" dy="754" grid="1" gridSize="10" guides="1" tooltips="1" connect="1" arrows="1" fold="1" page="1" pageScale="1" pageWidth="2339" pageHeight="3300" math="0" shadow="0">
      <root>
        <mxCell id="0" />
        <mxCell id="1" parent="0" />
        <mxCell id="-_vBUKOz7Ep2l8pXiHpC-1" value="NHL" style="whiteSpace=wrap;html=1;align=center;" vertex="1" parent="1">
          <mxGeometry x="580" y="180" width="100" height="40" as="geometry" />
        </mxCell>
        <mxCell id="-_vBUKOz7Ep2l8pXiHpC-10" value="" style="edgeStyle=orthogonalEdgeStyle;rounded=0;orthogonalLoop=1;jettySize=auto;html=1;startArrow=ERoneToMany;startFill=0;endArrow=none;endFill=0;" edge="1" parent="1" source="-_vBUKOz7Ep2l8pXiHpC-6" target="-_vBUKOz7Ep2l8pXiHpC-9">
          <mxGeometry relative="1" as="geometry" />
        </mxCell>
        <mxCell id="-_vBUKOz7Ep2l8pXiHpC-14" value="" style="edgeStyle=orthogonalEdgeStyle;rounded=0;orthogonalLoop=1;jettySize=auto;html=1;startArrow=ERone;startFill=0;endArrow=none;endFill=0;" edge="1" parent="1" source="-_vBUKOz7Ep2l8pXiHpC-6" target="-_vBUKOz7Ep2l8pXiHpC-13">
          <mxGeometry relative="1" as="geometry" />
        </mxCell>
        <mxCell id="-_vBUKOz7Ep2l8pXiHpC-27" value="" style="edgeStyle=none;rounded=0;orthogonalLoop=1;jettySize=auto;html=1;startArrow=ERoneToMany;startFill=0;endArrow=none;endFill=0;" edge="1" parent="1" source="-_vBUKOz7Ep2l8pXiHpC-6" target="-_vBUKOz7Ep2l8pXiHpC-26">
          <mxGeometry relative="1" as="geometry" />
        </mxCell>
        <mxCell id="-_vBUKOz7Ep2l8pXiHpC-6" value="Team" style="swimlane;childLayout=stackLayout;horizontal=1;startSize=30;horizontalStack=0;rounded=1;fontSize=14;fontStyle=0;strokeWidth=2;resizeParent=0;resizeLast=1;shadow=0;dashed=0;align=center;" vertex="1" parent="1">
          <mxGeometry x="550" y="450" width="160" height="120" as="geometry" />
        </mxCell>
        <mxCell id="-_vBUKOz7Ep2l8pXiHpC-7" value="Name&#xa;City&#xa;Coach&#xa;Captain&#xa;Set of Players&#xa;" style="align=left;strokeColor=none;fillColor=none;spacingLeft=4;fontSize=12;verticalAlign=top;resizable=0;rotatable=0;part=1;" vertex="1" parent="-_vBUKOz7Ep2l8pXiHpC-6">
          <mxGeometry y="30" width="160" height="90" as="geometry" />
        </mxCell>
        <mxCell id="-_vBUKOz7Ep2l8pXiHpC-11" value="" style="edgeStyle=orthogonalEdgeStyle;rounded=0;orthogonalLoop=1;jettySize=auto;html=1;startArrow=none;startFill=0;endArrow=ERone;endFill=0;" edge="1" parent="1" source="-_vBUKOz7Ep2l8pXiHpC-9" target="-_vBUKOz7Ep2l8pXiHpC-1">
          <mxGeometry relative="1" as="geometry" />
        </mxCell>
        <mxCell id="-_vBUKOz7Ep2l8pXiHpC-9" value="has" style="rhombus;whiteSpace=wrap;html=1;fontSize=14;fontStyle=0;startSize=30;rounded=1;strokeWidth=2;shadow=0;dashed=0;" vertex="1" parent="1">
          <mxGeometry x="590" y="270" width="80" height="80" as="geometry" />
        </mxCell>
        <mxCell id="-_vBUKOz7Ep2l8pXiHpC-23" style="edgeStyle=orthogonalEdgeStyle;rounded=0;orthogonalLoop=1;jettySize=auto;html=1;exitX=1;exitY=0.5;exitDx=0;exitDy=0;entryX=0;entryY=0.25;entryDx=0;entryDy=0;startArrow=none;startFill=0;endArrow=ERoneToMany;endFill=0;" edge="1" parent="1" source="-_vBUKOz7Ep2l8pXiHpC-13" target="-_vBUKOz7Ep2l8pXiHpC-19">
          <mxGeometry relative="1" as="geometry" />
        </mxCell>
        <mxCell id="-_vBUKOz7Ep2l8pXiHpC-13" value="has" style="rhombus;whiteSpace=wrap;html=1;fontSize=14;fontStyle=0;startSize=30;rounded=1;strokeWidth=2;shadow=0;dashed=0;" vertex="1" parent="1">
          <mxGeometry x="830" y="470" width="80" height="80" as="geometry" />
        </mxCell>
        <mxCell id="-_vBUKOz7Ep2l8pXiHpC-17" value="Player" style="swimlane;childLayout=stackLayout;horizontal=1;startSize=30;horizontalStack=0;rounded=1;fontSize=14;fontStyle=0;strokeWidth=2;resizeParent=0;resizeLast=1;shadow=0;dashed=0;align=center;" vertex="1" parent="1">
          <mxGeometry x="990" y="450" width="160" height="120" as="geometry" />
        </mxCell>
        <mxCell id="-_vBUKOz7Ep2l8pXiHpC-19" value="Name&#xa;Position&#xa;Skill&#xa;Injuries" style="align=left;strokeColor=none;fillColor=none;spacingLeft=4;fontSize=12;verticalAlign=top;resizable=0;rotatable=0;part=1;" vertex="1" parent="-_vBUKOz7Ep2l8pXiHpC-17">
          <mxGeometry y="30" width="160" height="90" as="geometry" />
        </mxCell>
        <mxCell id="-_vBUKOz7Ep2l8pXiHpC-30" style="edgeStyle=none;rounded=0;orthogonalLoop=1;jettySize=auto;html=1;exitX=0.5;exitY=1;exitDx=0;exitDy=0;startArrow=none;startFill=0;endArrow=ERoneToMany;endFill=0;" edge="1" parent="1" source="-_vBUKOz7Ep2l8pXiHpC-26" target="-_vBUKOz7Ep2l8pXiHpC-28">
          <mxGeometry relative="1" as="geometry" />
        </mxCell>
        <mxCell id="-_vBUKOz7Ep2l8pXiHpC-26" value="play" style="rhombus;whiteSpace=wrap;html=1;fontSize=14;fontStyle=0;startSize=30;rounded=1;strokeWidth=2;shadow=0;dashed=0;" vertex="1" parent="1">
          <mxGeometry x="590" y="670" width="80" height="80" as="geometry" />
        </mxCell>
        <mxCell id="-_vBUKOz7Ep2l8pXiHpC-28" value="Game" style="swimlane;childLayout=stackLayout;horizontal=1;startSize=30;horizontalStack=0;rounded=1;fontSize=14;fontStyle=0;strokeWidth=2;resizeParent=0;resizeLast=1;shadow=0;dashed=0;align=center;" vertex="1" parent="1">
          <mxGeometry x="550" y="840" width="160" height="120" as="geometry" />
        </mxCell>
        <mxCell id="-_vBUKOz7Ep2l8pXiHpC-29" value="Host Team&#xa;Guest Team&#xa;Date&#xa;Score" style="align=left;strokeColor=none;fillColor=none;spacingLeft=4;fontSize=12;verticalAlign=top;resizable=0;rotatable=0;part=1;" vertex="1" parent="-_vBUKOz7Ep2l8pXiHpC-28">
          <mxGeometry y="30" width="160" height="90" as="geometry" />
        </mxCell>
      </root>
    </mxGraphModel>
  </diagram>
  <diagram id="czr4Lg_XXo4nXssVJznS" name="Página-6">
    <mxGraphModel dx="4709" dy="1257" grid="1" gridSize="10" guides="1" tooltips="1" connect="1" arrows="1" fold="1" page="1" pageScale="1" pageWidth="2339" pageHeight="3300" math="0" shadow="0">
      <root>
        <mxCell id="0" />
        <mxCell id="1" parent="0" />
        <mxCell id="I2bQb5VCqwJs4gIeQsfc-3" value="" style="edgeStyle=none;rounded=0;orthogonalLoop=1;jettySize=auto;html=1;startArrow=ERone;startFill=0;endArrow=none;endFill=0;" edge="1" parent="1" source="I2bQb5VCqwJs4gIeQsfc-1" target="I2bQb5VCqwJs4gIeQsfc-2">
          <mxGeometry relative="1" as="geometry" />
        </mxCell>
        <mxCell id="I2bQb5VCqwJs4gIeQsfc-1" value="Company" style="whiteSpace=wrap;html=1;align=center;" vertex="1" parent="1">
          <mxGeometry x="670" y="160" width="100" height="40" as="geometry" />
        </mxCell>
        <mxCell id="Kazh08A99_9FwjeXUtA--3" style="edgeStyle=none;rounded=0;orthogonalLoop=1;jettySize=auto;html=1;exitX=0.5;exitY=1;exitDx=0;exitDy=0;entryX=0.5;entryY=0;entryDx=0;entryDy=0;startArrow=none;startFill=0;endArrow=ERoneToMany;endFill=0;" edge="1" parent="1" source="I2bQb5VCqwJs4gIeQsfc-2" target="Kazh08A99_9FwjeXUtA--1">
          <mxGeometry relative="1" as="geometry" />
        </mxCell>
        <mxCell id="I2bQb5VCqwJs4gIeQsfc-2" value="sels" style="rhombus;whiteSpace=wrap;html=1;" vertex="1" parent="1">
          <mxGeometry x="680" y="470" width="80" height="80" as="geometry" />
        </mxCell>
        <mxCell id="Kazh08A99_9FwjeXUtA--6" value="" style="edgeStyle=none;rounded=0;orthogonalLoop=1;jettySize=auto;html=1;startArrow=ERoneToMany;startFill=0;endArrow=none;endFill=0;" edge="1" parent="1" source="Kazh08A99_9FwjeXUtA--1" target="Kazh08A99_9FwjeXUtA--5">
          <mxGeometry relative="1" as="geometry" />
        </mxCell>
        <mxCell id="Kazh08A99_9FwjeXUtA--13" value="" style="edgeStyle=none;rounded=0;orthogonalLoop=1;jettySize=auto;html=1;startArrow=ERoneToMany;startFill=0;endArrow=none;endFill=0;" edge="1" parent="1" source="Kazh08A99_9FwjeXUtA--1" target="Kazh08A99_9FwjeXUtA--12">
          <mxGeometry relative="1" as="geometry" />
        </mxCell>
        <mxCell id="Kazh08A99_9FwjeXUtA--35" value="" style="edgeStyle=none;rounded=0;orthogonalLoop=1;jettySize=auto;html=1;startArrow=ERoneToMany;startFill=0;endArrow=none;endFill=0;" edge="1" parent="1" source="Kazh08A99_9FwjeXUtA--1" target="Kazh08A99_9FwjeXUtA--34">
          <mxGeometry relative="1" as="geometry" />
        </mxCell>
        <mxCell id="Kazh08A99_9FwjeXUtA--1" value="Product" style="swimlane;childLayout=stackLayout;horizontal=1;startSize=30;horizontalStack=0;rounded=1;fontSize=14;fontStyle=0;strokeWidth=2;resizeParent=0;resizeLast=1;shadow=0;dashed=0;align=center;" vertex="1" parent="1">
          <mxGeometry x="640" y="630" width="160" height="170" as="geometry" />
        </mxCell>
        <mxCell id="Kazh08A99_9FwjeXUtA--2" value="Product_ID&#xa;Product_Description&#xa;Product_Finish&#xa;Unit_Price &#xa;Product_Quantity&#xa;&#xa;Product_Line_ID&#xa;Order Id" style="align=left;strokeColor=none;fillColor=none;spacingLeft=4;fontSize=12;verticalAlign=top;resizable=0;rotatable=0;part=1;" vertex="1" parent="Kazh08A99_9FwjeXUtA--1">
          <mxGeometry y="30" width="160" height="140" as="geometry" />
        </mxCell>
        <mxCell id="Kazh08A99_9FwjeXUtA--11" style="edgeStyle=none;rounded=0;orthogonalLoop=1;jettySize=auto;html=1;exitX=1;exitY=0.5;exitDx=0;exitDy=0;entryX=-0.006;entryY=0.4;entryDx=0;entryDy=0;entryPerimeter=0;startArrow=none;startFill=0;endArrow=ERone;endFill=0;" edge="1" parent="1" source="Kazh08A99_9FwjeXUtA--5" target="Kazh08A99_9FwjeXUtA--8">
          <mxGeometry relative="1" as="geometry" />
        </mxCell>
        <mxCell id="Kazh08A99_9FwjeXUtA--5" value="grouped" style="rhombus;whiteSpace=wrap;html=1;fontSize=14;fontStyle=0;startSize=30;rounded=1;strokeWidth=2;shadow=0;dashed=0;" vertex="1" parent="1">
          <mxGeometry x="920" y="675" width="80" height="80" as="geometry" />
        </mxCell>
        <mxCell id="Kazh08A99_9FwjeXUtA--7" value="Product Line" style="swimlane;childLayout=stackLayout;horizontal=1;startSize=30;horizontalStack=0;rounded=1;fontSize=14;fontStyle=0;strokeWidth=2;resizeParent=0;resizeLast=1;shadow=0;dashed=0;align=center;" vertex="1" parent="1">
          <mxGeometry x="1120" y="630" width="160" height="170" as="geometry" />
        </mxCell>
        <mxCell id="Kazh08A99_9FwjeXUtA--8" value="Product_Line_ID&#xa;Product_Line_Name&#xa;&#xa;Product_ID" style="align=left;strokeColor=none;fillColor=none;spacingLeft=4;fontSize=12;verticalAlign=top;resizable=0;rotatable=0;part=1;" vertex="1" parent="Kazh08A99_9FwjeXUtA--7">
          <mxGeometry y="30" width="160" height="140" as="geometry" />
        </mxCell>
        <mxCell id="Kazh08A99_9FwjeXUtA--16" style="edgeStyle=none;rounded=0;orthogonalLoop=1;jettySize=auto;html=1;exitX=0;exitY=0.5;exitDx=0;exitDy=0;entryX=1;entryY=0.5;entryDx=0;entryDy=0;startArrow=none;startFill=0;endArrow=ERoneToMany;endFill=0;" edge="1" parent="1" source="Kazh08A99_9FwjeXUtA--12" target="Kazh08A99_9FwjeXUtA--14">
          <mxGeometry relative="1" as="geometry" />
        </mxCell>
        <mxCell id="Kazh08A99_9FwjeXUtA--12" value="request" style="rhombus;whiteSpace=wrap;html=1;fontSize=14;fontStyle=0;startSize=30;rounded=1;strokeWidth=2;shadow=0;dashed=0;" vertex="1" parent="1">
          <mxGeometry x="440" y="675" width="80" height="80" as="geometry" />
        </mxCell>
        <mxCell id="Kazh08A99_9FwjeXUtA--19" value="" style="edgeStyle=none;rounded=0;orthogonalLoop=1;jettySize=auto;html=1;startArrow=ERoneToMany;startFill=0;endArrow=none;endFill=0;" edge="1" parent="1" source="Kazh08A99_9FwjeXUtA--14" target="Kazh08A99_9FwjeXUtA--18">
          <mxGeometry relative="1" as="geometry" />
        </mxCell>
        <mxCell id="Kazh08A99_9FwjeXUtA--14" value="Order" style="swimlane;childLayout=stackLayout;horizontal=1;startSize=30;horizontalStack=0;rounded=1;fontSize=14;fontStyle=0;strokeWidth=2;resizeParent=0;resizeLast=1;shadow=0;dashed=0;align=center;" vertex="1" parent="1">
          <mxGeometry x="170" y="630" width="160" height="170" as="geometry" />
        </mxCell>
        <mxCell id="Kazh08A99_9FwjeXUtA--15" value="Order_ID&#xa;Order_Date&#xa;&#xa;Product_Quantity&#xa;Product_ID&#xa;Customer_ID" style="align=left;strokeColor=none;fillColor=none;spacingLeft=4;fontSize=12;verticalAlign=top;resizable=0;rotatable=0;part=1;" vertex="1" parent="Kazh08A99_9FwjeXUtA--14">
          <mxGeometry y="30" width="160" height="140" as="geometry" />
        </mxCell>
        <mxCell id="Kazh08A99_9FwjeXUtA--22" style="edgeStyle=none;rounded=0;orthogonalLoop=1;jettySize=auto;html=1;exitX=0.5;exitY=0;exitDx=0;exitDy=0;entryX=0.438;entryY=1;entryDx=0;entryDy=0;entryPerimeter=0;startArrow=none;startFill=0;endArrow=ERone;endFill=0;" edge="1" parent="1" source="Kazh08A99_9FwjeXUtA--18" target="Kazh08A99_9FwjeXUtA--21">
          <mxGeometry relative="1" as="geometry" />
        </mxCell>
        <mxCell id="Kazh08A99_9FwjeXUtA--18" value="submit" style="rhombus;whiteSpace=wrap;html=1;fontSize=14;fontStyle=0;startSize=30;rounded=1;strokeWidth=2;shadow=0;dashed=0;" vertex="1" parent="1">
          <mxGeometry x="210" y="480" width="80" height="80" as="geometry" />
        </mxCell>
        <mxCell id="Kazh08A99_9FwjeXUtA--24" value="" style="edgeStyle=none;rounded=0;orthogonalLoop=1;jettySize=auto;html=1;startArrow=ERoneToMany;startFill=0;endArrow=none;endFill=0;" edge="1" parent="1" source="Kazh08A99_9FwjeXUtA--20" target="Kazh08A99_9FwjeXUtA--23">
          <mxGeometry relative="1" as="geometry" />
        </mxCell>
        <mxCell id="Kazh08A99_9FwjeXUtA--20" value="Customer" style="swimlane;childLayout=stackLayout;horizontal=1;startSize=30;horizontalStack=0;rounded=1;fontSize=14;fontStyle=0;strokeWidth=2;resizeParent=0;resizeLast=1;shadow=0;dashed=0;align=center;" vertex="1" parent="1">
          <mxGeometry x="180" y="290" width="160" height="120" as="geometry" />
        </mxCell>
        <mxCell id="Kazh08A99_9FwjeXUtA--21" value="Customer_ID&#xa;Customer_Name&#xa;Customer_Address &#xa;&#xa;Territory_ID&#xa;" style="align=left;strokeColor=none;fillColor=none;spacingLeft=4;fontSize=12;verticalAlign=top;resizable=0;rotatable=0;part=1;" vertex="1" parent="Kazh08A99_9FwjeXUtA--20">
          <mxGeometry y="30" width="160" height="90" as="geometry" />
        </mxCell>
        <mxCell id="Kazh08A99_9FwjeXUtA--27" style="edgeStyle=none;rounded=0;orthogonalLoop=1;jettySize=auto;html=1;exitX=0;exitY=0.5;exitDx=0;exitDy=0;entryX=1;entryY=0.5;entryDx=0;entryDy=0;startArrow=none;startFill=0;endArrow=ERoneToMany;endFill=0;" edge="1" parent="1" source="Kazh08A99_9FwjeXUtA--23" target="Kazh08A99_9FwjeXUtA--25">
          <mxGeometry relative="1" as="geometry" />
        </mxCell>
        <mxCell id="Kazh08A99_9FwjeXUtA--23" value="has" style="rhombus;whiteSpace=wrap;html=1;fontSize=14;fontStyle=0;startSize=30;rounded=1;strokeWidth=2;shadow=0;dashed=0;" vertex="1" parent="1">
          <mxGeometry x="-20" y="310" width="80" height="80" as="geometry" />
        </mxCell>
        <mxCell id="Kazh08A99_9FwjeXUtA--29" value="" style="edgeStyle=none;rounded=0;orthogonalLoop=1;jettySize=auto;html=1;startArrow=ERone;startFill=0;endArrow=none;endFill=0;" edge="1" parent="1" source="Kazh08A99_9FwjeXUtA--25" target="Kazh08A99_9FwjeXUtA--28">
          <mxGeometry relative="1" as="geometry" />
        </mxCell>
        <mxCell id="Kazh08A99_9FwjeXUtA--25" value="Sales Territories" style="swimlane;childLayout=stackLayout;horizontal=1;startSize=30;horizontalStack=0;rounded=1;fontSize=14;fontStyle=0;strokeWidth=2;resizeParent=0;resizeLast=1;shadow=0;dashed=0;align=center;" vertex="1" parent="1">
          <mxGeometry x="-330" y="290" width="160" height="120" as="geometry" />
        </mxCell>
        <mxCell id="Kazh08A99_9FwjeXUtA--26" value="Territory_ID&#xa;&#xa;Customer_ID" style="align=left;strokeColor=none;fillColor=none;spacingLeft=4;fontSize=12;verticalAlign=top;resizable=0;rotatable=0;part=1;" vertex="1" parent="Kazh08A99_9FwjeXUtA--25">
          <mxGeometry y="30" width="160" height="90" as="geometry" />
        </mxCell>
        <mxCell id="Kazh08A99_9FwjeXUtA--32" style="edgeStyle=none;rounded=0;orthogonalLoop=1;jettySize=auto;html=1;exitX=0.5;exitY=1;exitDx=0;exitDy=0;entryX=0.5;entryY=0;entryDx=0;entryDy=0;startArrow=none;startFill=0;endArrow=ERoneToMany;endFill=0;" edge="1" parent="1" source="Kazh08A99_9FwjeXUtA--28" target="Kazh08A99_9FwjeXUtA--30">
          <mxGeometry relative="1" as="geometry" />
        </mxCell>
        <mxCell id="Kazh08A99_9FwjeXUtA--28" value="has" style="rhombus;whiteSpace=wrap;html=1;fontSize=14;fontStyle=0;startSize=30;rounded=1;strokeWidth=2;shadow=0;dashed=0;" vertex="1" parent="1">
          <mxGeometry x="-290" y="480" width="80" height="80" as="geometry" />
        </mxCell>
        <mxCell id="Kazh08A99_9FwjeXUtA--30" value="Sales Person" style="swimlane;childLayout=stackLayout;horizontal=1;startSize=30;horizontalStack=0;rounded=1;fontSize=14;fontStyle=0;strokeWidth=2;resizeParent=0;resizeLast=1;shadow=0;dashed=0;align=center;" vertex="1" parent="1">
          <mxGeometry x="-330" y="630" width="160" height="170" as="geometry" />
        </mxCell>
        <mxCell id="Kazh08A99_9FwjeXUtA--31" value="Salesperson_ID&#xa;Salesperson_Name&#xa;Salesperson_Telephone&#xa;Salesperson_Fax&#xa;" style="align=left;strokeColor=none;fillColor=none;spacingLeft=4;fontSize=12;verticalAlign=top;resizable=0;rotatable=0;part=1;" vertex="1" parent="Kazh08A99_9FwjeXUtA--30">
          <mxGeometry y="30" width="160" height="140" as="geometry" />
        </mxCell>
        <mxCell id="Kazh08A99_9FwjeXUtA--38" style="edgeStyle=none;rounded=0;orthogonalLoop=1;jettySize=auto;html=1;exitX=0.5;exitY=1;exitDx=0;exitDy=0;entryX=0.5;entryY=0;entryDx=0;entryDy=0;startArrow=none;startFill=0;endArrow=ERoneToMany;endFill=0;" edge="1" parent="1" source="Kazh08A99_9FwjeXUtA--34" target="Kazh08A99_9FwjeXUtA--36">
          <mxGeometry relative="1" as="geometry" />
        </mxCell>
        <mxCell id="Kazh08A99_9FwjeXUtA--34" value="&lt;font style=&quot;font-size: 12px;&quot;&gt;Assembled&lt;/font&gt;" style="rhombus;whiteSpace=wrap;html=1;fontSize=14;fontStyle=0;startSize=30;rounded=1;strokeWidth=2;shadow=0;dashed=0;" vertex="1" parent="1">
          <mxGeometry x="680" y="925" width="80" height="80" as="geometry" />
        </mxCell>
        <mxCell id="Kazh08A99_9FwjeXUtA--40" value="" style="edgeStyle=none;rounded=0;orthogonalLoop=1;jettySize=auto;html=1;startArrow=ERoneToMany;startFill=0;endArrow=none;endFill=0;" edge="1" parent="1" source="Kazh08A99_9FwjeXUtA--36" target="Kazh08A99_9FwjeXUtA--39">
          <mxGeometry relative="1" as="geometry" />
        </mxCell>
        <mxCell id="Kazh08A99_9FwjeXUtA--36" value="Material" style="swimlane;childLayout=stackLayout;horizontal=1;startSize=30;horizontalStack=0;rounded=1;fontSize=14;fontStyle=0;strokeWidth=2;resizeParent=0;resizeLast=1;shadow=0;dashed=0;align=center;" vertex="1" parent="1">
          <mxGeometry x="640" y="1100" width="160" height="160" as="geometry" />
        </mxCell>
        <mxCell id="Kazh08A99_9FwjeXUtA--37" value="Material_ID&#xa;Unit_of_Measure &#xa;Unit_Price&#xa;&#xa;Vendor_ID" style="align=left;strokeColor=none;fillColor=none;spacingLeft=4;fontSize=12;verticalAlign=top;resizable=0;rotatable=0;part=1;" vertex="1" parent="Kazh08A99_9FwjeXUtA--36">
          <mxGeometry y="30" width="160" height="130" as="geometry" />
        </mxCell>
        <mxCell id="Kazh08A99_9FwjeXUtA--43" style="edgeStyle=none;rounded=0;orthogonalLoop=1;jettySize=auto;html=1;exitX=0;exitY=0.5;exitDx=0;exitDy=0;entryX=1;entryY=0.5;entryDx=0;entryDy=0;startArrow=none;startFill=0;endArrow=ERoneToMany;endFill=0;" edge="1" parent="1" source="Kazh08A99_9FwjeXUtA--39" target="Kazh08A99_9FwjeXUtA--41">
          <mxGeometry relative="1" as="geometry" />
        </mxCell>
        <mxCell id="Kazh08A99_9FwjeXUtA--39" value="supplies" style="rhombus;whiteSpace=wrap;html=1;fontSize=14;fontStyle=0;startSize=30;rounded=1;strokeWidth=2;shadow=0;dashed=0;" vertex="1" parent="1">
          <mxGeometry x="440" y="1140" width="80" height="80" as="geometry" />
        </mxCell>
        <mxCell id="Kazh08A99_9FwjeXUtA--41" value="Vendor" style="swimlane;childLayout=stackLayout;horizontal=1;startSize=30;horizontalStack=0;rounded=1;fontSize=14;fontStyle=0;strokeWidth=2;resizeParent=0;resizeLast=1;shadow=0;dashed=0;align=center;" vertex="1" parent="1">
          <mxGeometry x="180" y="1100" width="160" height="160" as="geometry" />
        </mxCell>
        <mxCell id="Kazh08A99_9FwjeXUtA--42" value="Vendor_ID&#xa;Vendor_Name &#xa;Vendor_Address&#xa;" style="align=left;strokeColor=none;fillColor=none;spacingLeft=4;fontSize=12;verticalAlign=top;resizable=0;rotatable=0;part=1;" vertex="1" parent="Kazh08A99_9FwjeXUtA--41">
          <mxGeometry y="30" width="160" height="130" as="geometry" />
        </mxCell>
      </root>
    </mxGraphModel>
  </diagram>
</mxfile>
